<?xml version="1.0" encoding="UTF-8" standalone="no"?>
<!DOCTYPE svg PUBLIC "-//W3C//DTD SVG 1.1//EN"
 "http://www.w3.org/Graphics/SVG/1.1/DTD/svg11.dtd">
<!-- Generated by graphviz version 3.0.0 (20220226.1711)
 -->
<!-- Title: dependencies Pages: 1 -->
<svg width="4808pt" height="247pt"
 viewBox="0.00 0.00 4808.00 246.80" xmlns="http://www.w3.org/2000/svg" xmlns:xlink="http://www.w3.org/1999/xlink">
<g id="graph0" class="graph" transform="scale(1 1) rotate(0) translate(4 242.8)">
<title>dependencies</title>
<polygon fill="white" stroke="transparent" points="-4,4 -4,-242.8 4804,-242.8 4804,4 -4,4"/>
<text text-anchor="middle" x="2400" y="-8.2" font-family="sans-serif" font-size="14.00">dependencies</text>
<g id="clust1" class="cluster">
<title>cluster_AppModule</title>
<polygon fill="none" stroke="black" stroke-dasharray="1,5" points="8,-32.8 8,-230.8 4792,-230.8 4792,-32.8 8,-32.8"/>
</g>
<g id="clust2" class="cluster">
<title>cluster_AppModule_declarations</title>
<polygon fill="none" stroke="black" points="731,-40.8 731,-92.8 4784,-92.8 4784,-40.8 731,-40.8"/>
</g>
<g id="clust30" class="cluster">
<title>cluster_AppModule_imports</title>
<polygon fill="none" stroke="black" points="579,-40.8 579,-92.8 723,-92.8 723,-40.8 579,-40.8"/>
</g>
<g id="clust32" class="cluster">
<title>cluster_AppModule_bootstrap</title>
<polygon fill="none" stroke="black" points="2411,-170.8 2411,-222.8 2535,-222.8 2535,-170.8 2411,-170.8"/>
</g>
<g id="clust33" class="cluster">
<title>cluster_AppModule_providers</title>
<polygon fill="none" stroke="black" points="16,-40.8 16,-92.8 571,-92.8 571,-40.8 16,-40.8"/>
</g>
<!-- ActualizarUserComponent -->
<g id="node1" class="node">
<title>ActualizarUserComponent</title>
<polygon fill="#ffffb3" stroke="black" points="4776.06,-84.8 4609.94,-84.8 4609.94,-48.8 4776.06,-48.8 4776.06,-84.8"/>
<text text-anchor="middle" x="4693" y="-62.6" font-family="Times,serif" font-size="14.00">ActualizarUserComponent</text>
</g>
<!-- AppModule -->
<g id="node28" class="node">
<title>AppModule</title>
<polygon fill="#8dd3c7" stroke="black" points="2514.66,-149.8 2511.66,-153.8 2490.66,-153.8 2487.66,-149.8 2431.34,-149.8 2431.34,-113.8 2514.66,-113.8 2514.66,-149.8"/>
<text text-anchor="middle" x="2473" y="-127.6" font-family="Times,serif" font-size="14.00">AppModule</text>
</g>
<!-- ActualizarUserComponent&#45;&gt;AppModule -->
<g id="edge1" class="edge">
<title>ActualizarUserComponent&#45;&gt;AppModule</title>
<path fill="none" stroke="black" d="M4693,-85.18C4693,-109.08 4693,-147.8 4693,-147.8 4693,-147.8 2524.88,-147.8 2524.88,-147.8"/>
<polygon fill="black" stroke="black" points="2524.88,-144.3 2514.88,-147.8 2524.88,-151.3 2524.88,-144.3"/>
</g>
<!-- AmigosComponent -->
<g id="node2" class="node">
<title>AmigosComponent</title>
<polygon fill="#ffffb3" stroke="black" points="4591.67,-84.8 4466.33,-84.8 4466.33,-48.8 4591.67,-48.8 4591.67,-84.8"/>
<text text-anchor="middle" x="4529" y="-62.6" font-family="Times,serif" font-size="14.00">AmigosComponent</text>
</g>
<!-- AmigosComponent&#45;&gt;AppModule -->
<g id="edge2" class="edge">
<title>AmigosComponent&#45;&gt;AppModule</title>
<path fill="none" stroke="black" d="M4529,-85.12C4529,-108.46 4529,-145.8 4529,-145.8 4529,-145.8 2525,-145.8 2525,-145.8"/>
<polygon fill="black" stroke="black" points="2525,-142.3 2515,-145.8 2525,-149.3 2525,-142.3"/>
</g>
<!-- AministracionComponent -->
<g id="node3" class="node">
<title>AministracionComponent</title>
<polygon fill="#ffffb3" stroke="black" points="4447.93,-84.8 4286.07,-84.8 4286.07,-48.8 4447.93,-48.8 4447.93,-84.8"/>
<text text-anchor="middle" x="4367" y="-62.6" font-family="Times,serif" font-size="14.00">AministracionComponent</text>
</g>
<!-- AministracionComponent&#45;&gt;AppModule -->
<g id="edge3" class="edge">
<title>AministracionComponent&#45;&gt;AppModule</title>
<path fill="none" stroke="black" d="M4367,-85.05C4367,-107.82 4367,-143.8 4367,-143.8 4367,-143.8 2524.77,-143.8 2524.77,-143.8"/>
<polygon fill="black" stroke="black" points="2524.77,-140.3 2514.77,-143.8 2524.77,-147.3 2524.77,-140.3"/>
</g>
<!-- AmpliarFotoComponent -->
<g id="node4" class="node">
<title>AmpliarFotoComponent</title>
<polygon fill="#ffffb3" stroke="black" points="4267.66,-84.8 4114.34,-84.8 4114.34,-48.8 4267.66,-48.8 4267.66,-84.8"/>
<text text-anchor="middle" x="4191" y="-62.6" font-family="Times,serif" font-size="14.00">AmpliarFotoComponent</text>
</g>
<!-- AmpliarFotoComponent&#45;&gt;AppModule -->
<g id="edge4" class="edge">
<title>AmpliarFotoComponent&#45;&gt;AppModule</title>
<path fill="none" stroke="black" d="M4191,-85.09C4191,-107.01 4191,-140.8 4191,-140.8 4191,-140.8 2525.04,-140.8 2525.04,-140.8"/>
<polygon fill="black" stroke="black" points="2525.04,-137.3 2515.04,-140.8 2525.04,-144.3 2525.04,-137.3"/>
</g>
<!-- AppComponent -->
<g id="node5" class="node">
<title>AppComponent</title>
<polygon fill="#ffffb3" stroke="black" points="4095.94,-84.8 3990.06,-84.8 3990.06,-48.8 4095.94,-48.8 4095.94,-84.8"/>
<text text-anchor="middle" x="4043" y="-62.6" font-family="Times,serif" font-size="14.00">AppComponent</text>
</g>
<!-- AppComponent&#45;&gt;AppModule -->
<g id="edge5" class="edge">
<title>AppComponent&#45;&gt;AppModule</title>
<path fill="none" stroke="black" d="M4043,-84.97C4043,-106.3 4043,-138.8 4043,-138.8 4043,-138.8 2524.99,-138.8 2524.99,-138.8"/>
<polygon fill="black" stroke="black" points="2524.99,-135.3 2514.99,-138.8 2524.99,-142.3 2524.99,-135.3"/>
</g>
<!-- ChatComponent -->
<g id="node6" class="node">
<title>ChatComponent</title>
<polygon fill="#ffffb3" stroke="black" points="3971.77,-84.8 3864.23,-84.8 3864.23,-48.8 3971.77,-48.8 3971.77,-84.8"/>
<text text-anchor="middle" x="3918" y="-62.6" font-family="Times,serif" font-size="14.00">ChatComponent</text>
</g>
<!-- ChatComponent&#45;&gt;AppModule -->
<g id="edge6" class="edge">
<title>ChatComponent&#45;&gt;AppModule</title>
<path fill="none" stroke="black" d="M3918,-84.83C3918,-105.57 3918,-136.8 3918,-136.8 3918,-136.8 2524.69,-136.8 2524.69,-136.8"/>
<polygon fill="black" stroke="black" points="2524.69,-133.3 2514.69,-136.8 2524.69,-140.3 2524.69,-133.3"/>
</g>
<!-- ComentarioComponent -->
<g id="node7" class="node">
<title>ComentarioComponent</title>
<polygon fill="#ffffb3" stroke="black" points="3845.93,-84.8 3698.07,-84.8 3698.07,-48.8 3845.93,-48.8 3845.93,-84.8"/>
<text text-anchor="middle" x="3772" y="-62.6" font-family="Times,serif" font-size="14.00">ComentarioComponent</text>
</g>
<!-- ComentarioComponent&#45;&gt;AppModule -->
<g id="edge7" class="edge">
<title>ComentarioComponent&#45;&gt;AppModule</title>
<path fill="none" stroke="black" d="M3772,-85.02C3772,-105.17 3772,-134.8 3772,-134.8 3772,-134.8 2524.75,-134.8 2524.75,-134.8"/>
<polygon fill="black" stroke="black" points="2524.75,-131.3 2514.75,-134.8 2524.75,-138.3 2524.75,-131.3"/>
</g>
<!-- DateChangePipe -->
<g id="node8" class="node">
<title>DateChangePipe</title>
<polygon fill="#ffffb3" stroke="black" points="3680.08,-84.8 3569.92,-84.8 3569.92,-48.8 3680.08,-48.8 3680.08,-84.8"/>
<text text-anchor="middle" x="3625" y="-62.6" font-family="Times,serif" font-size="14.00">DateChangePipe</text>
</g>
<!-- DateChangePipe&#45;&gt;AppModule -->
<g id="edge8" class="edge">
<title>DateChangePipe&#45;&gt;AppModule</title>
<path fill="none" stroke="black" d="M3625,-84.91C3625,-104.14 3625,-131.8 3625,-131.8 3625,-131.8 2524.68,-131.8 2524.68,-131.8"/>
<polygon fill="black" stroke="black" points="2524.68,-128.3 2514.68,-131.8 2524.68,-135.3 2524.68,-128.3"/>
</g>
<!-- GaleriaComponent -->
<g id="node9" class="node">
<title>GaleriaComponent</title>
<polygon fill="#ffffb3" stroke="black" points="3552.03,-84.8 3429.97,-84.8 3429.97,-48.8 3552.03,-48.8 3552.03,-84.8"/>
<text text-anchor="middle" x="3491" y="-62.6" font-family="Times,serif" font-size="14.00">GaleriaComponent</text>
</g>
<!-- GaleriaComponent&#45;&gt;AppModule -->
<g id="edge9" class="edge">
<title>GaleriaComponent&#45;&gt;AppModule</title>
<path fill="none" stroke="black" d="M3491,-85.02C3491,-103.63 3491,-129.8 3491,-129.8 3491,-129.8 2524.8,-129.8 2524.8,-129.8"/>
<polygon fill="black" stroke="black" points="2524.8,-126.3 2514.8,-129.8 2524.8,-133.3 2524.8,-126.3"/>
</g>
<!-- HomeComponent -->
<g id="node10" class="node">
<title>HomeComponent</title>
<polygon fill="#ffffb3" stroke="black" points="3411.55,-84.8 3296.45,-84.8 3296.45,-48.8 3411.55,-48.8 3411.55,-84.8"/>
<text text-anchor="middle" x="3354" y="-62.6" font-family="Times,serif" font-size="14.00">HomeComponent</text>
</g>
<!-- HomeComponent&#45;&gt;AppModule -->
<g id="edge10" class="edge">
<title>HomeComponent&#45;&gt;AppModule</title>
<path fill="none" stroke="black" d="M3354,-85.1C3354,-103.07 3354,-127.8 3354,-127.8 3354,-127.8 2524.9,-127.8 2524.9,-127.8"/>
<polygon fill="black" stroke="black" points="2524.9,-124.3 2514.9,-127.8 2524.9,-131.3 2524.9,-124.3"/>
</g>
<!-- ImgGaleriaComponent -->
<g id="node11" class="node">
<title>ImgGaleriaComponent</title>
<polygon fill="#ffffb3" stroke="black" points="3278.58,-84.8 3133.42,-84.8 3133.42,-48.8 3278.58,-48.8 3278.58,-84.8"/>
<text text-anchor="middle" x="3206" y="-62.6" font-family="Times,serif" font-size="14.00">ImgGaleriaComponent</text>
</g>
<!-- ImgGaleriaComponent&#45;&gt;AppModule -->
<g id="edge11" class="edge">
<title>ImgGaleriaComponent&#45;&gt;AppModule</title>
<path fill="none" stroke="black" d="M3206,-84.82C3206,-102.17 3206,-125.8 3206,-125.8 3206,-125.8 2524.78,-125.8 2524.78,-125.8"/>
<polygon fill="black" stroke="black" points="2524.78,-122.3 2514.78,-125.8 2524.78,-129.3 2524.78,-122.3"/>
</g>
<!-- InicioComponent -->
<g id="node12" class="node">
<title>InicioComponent</title>
<polygon fill="#ffffb3" stroke="black" points="3114.99,-84.8 3001.01,-84.8 3001.01,-48.8 3114.99,-48.8 3114.99,-84.8"/>
<text text-anchor="middle" x="3058" y="-62.6" font-family="Times,serif" font-size="14.00">InicioComponent</text>
</g>
<!-- InicioComponent&#45;&gt;AppModule -->
<g id="edge12" class="edge">
<title>InicioComponent&#45;&gt;AppModule</title>
<path fill="none" stroke="black" d="M3058,-84.83C3058,-101.2 3058,-122.8 3058,-122.8 3058,-122.8 2525.07,-122.8 2525.07,-122.8"/>
<polygon fill="black" stroke="black" points="2525.07,-119.3 2515.07,-122.8 2525.07,-126.3 2525.07,-119.3"/>
</g>
<!-- LoginComponent -->
<g id="node13" class="node">
<title>LoginComponent</title>
<polygon fill="#ffffb3" stroke="black" points="2983.27,-84.8 2868.73,-84.8 2868.73,-48.8 2983.27,-48.8 2983.27,-84.8"/>
<text text-anchor="middle" x="2926" y="-62.6" font-family="Times,serif" font-size="14.00">LoginComponent</text>
</g>
<!-- LoginComponent&#45;&gt;AppModule -->
<g id="edge13" class="edge">
<title>LoginComponent&#45;&gt;AppModule</title>
<path fill="none" stroke="black" d="M2926,-85.08C2926,-100.75 2926,-120.8 2926,-120.8 2926,-120.8 2524.81,-120.8 2524.81,-120.8"/>
<polygon fill="black" stroke="black" points="2524.81,-117.3 2514.81,-120.8 2524.81,-124.3 2524.81,-117.3"/>
</g>
<!-- MenuNavComponent -->
<g id="node14" class="node">
<title>MenuNavComponent</title>
<polygon fill="#ffffb3" stroke="black" points="2850.82,-84.8 2713.18,-84.8 2713.18,-48.8 2850.82,-48.8 2850.82,-84.8"/>
<text text-anchor="middle" x="2782" y="-62.6" font-family="Times,serif" font-size="14.00">MenuNavComponent</text>
</g>
<!-- MenuNavComponent&#45;&gt;AppModule -->
<g id="edge14" class="edge">
<title>MenuNavComponent&#45;&gt;AppModule</title>
<path fill="none" stroke="black" d="M2782,-84.99C2782,-99.98 2782,-118.8 2782,-118.8 2782,-118.8 2524.67,-118.8 2524.67,-118.8"/>
<polygon fill="black" stroke="black" points="2524.67,-115.3 2514.67,-118.8 2524.67,-122.3 2524.67,-115.3"/>
</g>
<!-- NoticiasComponent -->
<g id="node15" class="node">
<title>NoticiasComponent</title>
<polygon fill="#ffffb3" stroke="black" points="2694.99,-84.8 2567.01,-84.8 2567.01,-48.8 2694.99,-48.8 2694.99,-84.8"/>
<text text-anchor="middle" x="2631" y="-62.6" font-family="Times,serif" font-size="14.00">NoticiasComponent</text>
</g>
<!-- NoticiasComponent&#45;&gt;AppModule -->
<g id="edge15" class="edge">
<title>NoticiasComponent&#45;&gt;AppModule</title>
<path fill="none" stroke="black" d="M2631,-84.85C2631,-99.17 2631,-116.8 2631,-116.8 2631,-116.8 2524.93,-116.8 2524.93,-116.8"/>
<polygon fill="black" stroke="black" points="2524.93,-113.3 2514.93,-116.8 2524.93,-120.3 2524.93,-113.3"/>
</g>
<!-- NotificacionComponent -->
<g id="node16" class="node">
<title>NotificacionComponent</title>
<polygon fill="#ffffb3" stroke="black" points="2548.8,-84.8 2397.2,-84.8 2397.2,-48.8 2548.8,-48.8 2548.8,-84.8"/>
<text text-anchor="middle" x="2473" y="-62.6" font-family="Times,serif" font-size="14.00">NotificacionComponent</text>
</g>
<!-- NotificacionComponent&#45;&gt;AppModule -->
<g id="edge16" class="edge">
<title>NotificacionComponent&#45;&gt;AppModule</title>
<path fill="none" stroke="black" d="M2473,-84.91C2473,-84.91 2473,-103.79 2473,-103.79"/>
<polygon fill="black" stroke="black" points="2469.5,-103.79 2473,-113.79 2476.5,-103.79 2469.5,-103.79"/>
</g>
<!-- ParquesComponent -->
<g id="node17" class="node">
<title>ParquesComponent</title>
<polygon fill="#ffffb3" stroke="black" points="2379.66,-84.8 2254.34,-84.8 2254.34,-48.8 2379.66,-48.8 2379.66,-84.8"/>
<text text-anchor="middle" x="2317" y="-62.6" font-family="Times,serif" font-size="14.00">ParquesComponent</text>
</g>
<!-- ParquesComponent&#45;&gt;AppModule -->
<g id="edge17" class="edge">
<title>ParquesComponent&#45;&gt;AppModule</title>
<path fill="none" stroke="black" d="M2317,-84.85C2317,-99.17 2317,-116.8 2317,-116.8 2317,-116.8 2421.19,-116.8 2421.19,-116.8"/>
<polygon fill="black" stroke="black" points="2421.19,-120.3 2431.19,-116.8 2421.19,-113.3 2421.19,-120.3"/>
</g>
<!-- PerfilAmigoComponent -->
<g id="node18" class="node">
<title>PerfilAmigoComponent</title>
<polygon fill="#ffffb3" stroke="black" points="2236.82,-84.8 2085.18,-84.8 2085.18,-48.8 2236.82,-48.8 2236.82,-84.8"/>
<text text-anchor="middle" x="2161" y="-62.6" font-family="Times,serif" font-size="14.00">PerfilAmigoComponent</text>
</g>
<!-- PerfilAmigoComponent&#45;&gt;AppModule -->
<g id="edge18" class="edge">
<title>PerfilAmigoComponent&#45;&gt;AppModule</title>
<path fill="none" stroke="black" d="M2161,-84.99C2161,-99.98 2161,-118.8 2161,-118.8 2161,-118.8 2421.25,-118.8 2421.25,-118.8"/>
<polygon fill="black" stroke="black" points="2421.25,-122.3 2431.25,-118.8 2421.25,-115.3 2421.25,-122.3"/>
</g>
<!-- PerfilComponent -->
<g id="node19" class="node">
<title>PerfilComponent</title>
<polygon fill="#ffffb3" stroke="black" points="2067.44,-84.8 1954.56,-84.8 1954.56,-48.8 2067.44,-48.8 2067.44,-84.8"/>
<text text-anchor="middle" x="2011" y="-62.6" font-family="Times,serif" font-size="14.00">PerfilComponent</text>
</g>
<!-- PerfilComponent&#45;&gt;AppModule -->
<g id="edge19" class="edge">
<title>PerfilComponent&#45;&gt;AppModule</title>
<path fill="none" stroke="black" d="M2011,-85.08C2011,-100.75 2011,-120.8 2011,-120.8 2011,-120.8 2421.19,-120.8 2421.19,-120.8"/>
<polygon fill="black" stroke="black" points="2421.19,-124.3 2431.19,-120.8 2421.19,-117.3 2421.19,-124.3"/>
</g>
<!-- ProgressSpinnerComponent -->
<g id="node20" class="node">
<title>ProgressSpinnerComponent</title>
<polygon fill="#ffffb3" stroke="black" points="1936.6,-84.8 1763.4,-84.8 1763.4,-48.8 1936.6,-48.8 1936.6,-84.8"/>
<text text-anchor="middle" x="1850" y="-62.6" font-family="Times,serif" font-size="14.00">ProgressSpinnerComponent</text>
</g>
<!-- ProgressSpinnerComponent&#45;&gt;AppModule -->
<g id="edge20" class="edge">
<title>ProgressSpinnerComponent&#45;&gt;AppModule</title>
<path fill="none" stroke="black" d="M1850,-84.83C1850,-101.2 1850,-122.8 1850,-122.8 1850,-122.8 2421.16,-122.8 2421.16,-122.8"/>
<polygon fill="black" stroke="black" points="2421.16,-126.3 2431.16,-122.8 2421.16,-119.3 2421.16,-126.3"/>
</g>
<!-- RegistroComponent -->
<g id="node21" class="node">
<title>RegistroComponent</title>
<polygon fill="#ffffb3" stroke="black" points="1745.27,-84.8 1616.73,-84.8 1616.73,-48.8 1745.27,-48.8 1745.27,-84.8"/>
<text text-anchor="middle" x="1681" y="-62.6" font-family="Times,serif" font-size="14.00">RegistroComponent</text>
</g>
<!-- RegistroComponent&#45;&gt;AppModule -->
<g id="edge21" class="edge">
<title>RegistroComponent&#45;&gt;AppModule</title>
<path fill="none" stroke="black" d="M1681,-84.82C1681,-102.17 1681,-125.8 1681,-125.8 1681,-125.8 2421.26,-125.8 2421.26,-125.8"/>
<polygon fill="black" stroke="black" points="2421.26,-129.3 2431.26,-125.8 2421.26,-122.3 2421.26,-129.3"/>
</g>
<!-- Safe -->
<g id="node22" class="node">
<title>Safe</title>
<polygon fill="#ffffb3" stroke="black" points="1599,-84.8 1545,-84.8 1545,-48.8 1599,-48.8 1599,-84.8"/>
<text text-anchor="middle" x="1572" y="-62.6" font-family="Times,serif" font-size="14.00">Safe</text>
</g>
<!-- Safe&#45;&gt;AppModule -->
<g id="edge22" class="edge">
<title>Safe&#45;&gt;AppModule</title>
<path fill="none" stroke="black" d="M1572,-85.1C1572,-103.07 1572,-127.8 1572,-127.8 1572,-127.8 2421.05,-127.8 2421.05,-127.8"/>
<polygon fill="black" stroke="black" points="2421.05,-131.3 2431.05,-127.8 2421.05,-124.3 2421.05,-131.3"/>
</g>
<!-- SubirFotoComponent -->
<g id="node23" class="node">
<title>SubirFotoComponent</title>
<polygon fill="#ffffb3" stroke="black" points="1526.85,-84.8 1389.15,-84.8 1389.15,-48.8 1526.85,-48.8 1526.85,-84.8"/>
<text text-anchor="middle" x="1458" y="-62.6" font-family="Times,serif" font-size="14.00">SubirFotoComponent</text>
</g>
<!-- SubirFotoComponent&#45;&gt;AppModule -->
<g id="edge23" class="edge">
<title>SubirFotoComponent&#45;&gt;AppModule</title>
<path fill="none" stroke="black" d="M1458,-85.02C1458,-103.63 1458,-129.8 1458,-129.8 1458,-129.8 2421.32,-129.8 2421.32,-129.8"/>
<polygon fill="black" stroke="black" points="2421.32,-133.3 2431.32,-129.8 2421.32,-126.3 2421.32,-133.3"/>
</g>
<!-- TarNoticiaComponent -->
<g id="node24" class="node">
<title>TarNoticiaComponent</title>
<polygon fill="#ffffb3" stroke="black" points="1370.97,-84.8 1229.03,-84.8 1229.03,-48.8 1370.97,-48.8 1370.97,-84.8"/>
<text text-anchor="middle" x="1300" y="-62.6" font-family="Times,serif" font-size="14.00">TarNoticiaComponent</text>
</g>
<!-- TarNoticiaComponent&#45;&gt;AppModule -->
<g id="edge24" class="edge">
<title>TarNoticiaComponent&#45;&gt;AppModule</title>
<path fill="none" stroke="black" d="M1300,-84.91C1300,-104.14 1300,-131.8 1300,-131.8 1300,-131.8 2421.25,-131.8 2421.25,-131.8"/>
<polygon fill="black" stroke="black" points="2421.25,-135.3 2431.25,-131.8 2421.25,-128.3 2421.25,-135.3"/>
</g>
<!-- VeterinarioComponent -->
<g id="node25" class="node">
<title>VeterinarioComponent</title>
<polygon fill="#ffffb3" stroke="black" points="1210.58,-84.8 1065.42,-84.8 1065.42,-48.8 1210.58,-48.8 1210.58,-84.8"/>
<text text-anchor="middle" x="1138" y="-62.6" font-family="Times,serif" font-size="14.00">VeterinarioComponent</text>
</g>
<!-- VeterinarioComponent&#45;&gt;AppModule -->
<g id="edge25" class="edge">
<title>VeterinarioComponent&#45;&gt;AppModule</title>
<path fill="none" stroke="black" d="M1138,-85.02C1138,-105.17 1138,-134.8 1138,-134.8 1138,-134.8 2421.21,-134.8 2421.21,-134.8"/>
<polygon fill="black" stroke="black" points="2421.21,-138.3 2431.21,-134.8 2421.21,-131.3 2421.21,-138.3"/>
</g>
<!-- VistaVeterinarioComponent -->
<g id="node26" class="node">
<title>VistaVeterinarioComponent</title>
<polygon fill="#ffffb3" stroke="black" points="1047.13,-84.8 872.87,-84.8 872.87,-48.8 1047.13,-48.8 1047.13,-84.8"/>
<text text-anchor="middle" x="960" y="-62.6" font-family="Times,serif" font-size="14.00">VistaVeterinarioComponent</text>
</g>
<!-- VistaVeterinarioComponent&#45;&gt;AppModule -->
<g id="edge26" class="edge">
<title>VistaVeterinarioComponent&#45;&gt;AppModule</title>
<path fill="none" stroke="black" d="M960,-84.83C960,-105.57 960,-136.8 960,-136.8 960,-136.8 2420.95,-136.8 2420.95,-136.8"/>
<polygon fill="black" stroke="black" points="2420.95,-140.3 2430.95,-136.8 2420.95,-133.3 2420.95,-140.3"/>
</g>
<!-- ZonasComponent -->
<g id="node27" class="node">
<title>ZonasComponent</title>
<polygon fill="#ffffb3" stroke="black" points="854.55,-84.8 739.45,-84.8 739.45,-48.8 854.55,-48.8 854.55,-84.8"/>
<text text-anchor="middle" x="797" y="-62.6" font-family="Times,serif" font-size="14.00">ZonasComponent</text>
</g>
<!-- ZonasComponent&#45;&gt;AppModule -->
<g id="edge27" class="edge">
<title>ZonasComponent&#45;&gt;AppModule</title>
<path fill="none" stroke="black" d="M797,-84.97C797,-106.3 797,-138.8 797,-138.8 797,-138.8 2421.15,-138.8 2421.15,-138.8"/>
<polygon fill="black" stroke="black" points="2421.15,-142.3 2431.15,-138.8 2421.15,-135.3 2421.15,-142.3"/>
</g>
<!-- AppComponent  -->
<g id="node30" class="node">
<title>AppComponent </title>
<polygon fill="#80b1d3" stroke="black" points="2527.44,-214.8 2418.56,-214.8 2418.56,-178.8 2527.44,-178.8 2527.44,-214.8"/>
<text text-anchor="middle" x="2473" y="-192.6" font-family="Times,serif" font-size="14.00">AppComponent </text>
</g>
<!-- AppModule&#45;&gt;AppComponent  -->
<g id="edge29" class="edge">
<title>AppModule&#45;&gt;AppComponent </title>
<path fill="none" stroke="black" stroke-dasharray="1,5" d="M2473,-149.91C2473,-149.91 2473,-168.79 2473,-168.79"/>
<polygon fill="black" stroke="black" points="2469.5,-168.79 2473,-178.79 2476.5,-168.79 2469.5,-168.79"/>
</g>
<!-- AppRoutingModule -->
<g id="node29" class="node">
<title>AppRoutingModule</title>
<polygon fill="#8dd3c7" stroke="black" points="715.28,-84.8 712.28,-88.8 691.28,-88.8 688.28,-84.8 586.72,-84.8 586.72,-48.8 715.28,-48.8 715.28,-84.8"/>
<text text-anchor="middle" x="651" y="-62.6" font-family="Times,serif" font-size="14.00">AppRoutingModule</text>
</g>
<!-- AppRoutingModule&#45;&gt;AppModule -->
<g id="edge28" class="edge">
<title>AppRoutingModule&#45;&gt;AppModule</title>
<path fill="none" stroke="black" d="M651,-85.09C651,-107.01 651,-140.8 651,-140.8 651,-140.8 2421.08,-140.8 2421.08,-140.8"/>
<polygon fill="black" stroke="black" points="2421.08,-144.3 2431.08,-140.8 2421.08,-137.3 2421.08,-144.3"/>
</g>
<!-- HttpInterceptorService -->
<g id="node31" class="node">
<title>HttpInterceptorService</title>
<ellipse fill="#fdb462" stroke="black" cx="463" cy="-66.8" rx="99.54" ry="18"/>
<text text-anchor="middle" x="463" y="-62.6" font-family="Times,serif" font-size="14.00">HttpInterceptorService</text>
</g>
<!-- HttpInterceptorService&#45;&gt;AppModule -->
<g id="edge30" class="edge">
<title>HttpInterceptorService&#45;&gt;AppModule</title>
<path fill="none" stroke="black" d="M463,-85.05C463,-107.82 463,-143.8 463,-143.8 463,-143.8 2421.02,-143.8 2421.02,-143.8"/>
<polygon fill="black" stroke="black" points="2421.02,-147.3 2431.02,-143.8 2421.02,-140.3 2421.02,-147.3"/>
</g>
<!-- LoaderInterceptors -->
<g id="node32" class="node">
<title>LoaderInterceptors</title>
<ellipse fill="#fdb462" stroke="black" cx="261" cy="-66.8" rx="84.49" ry="18"/>
<text text-anchor="middle" x="261" y="-62.6" font-family="Times,serif" font-size="14.00">LoaderInterceptors</text>
</g>
<!-- LoaderInterceptors&#45;&gt;AppModule -->
<g id="edge31" class="edge">
<title>LoaderInterceptors&#45;&gt;AppModule</title>
<path fill="none" stroke="black" d="M261,-85.12C261,-108.46 261,-145.8 261,-145.8 261,-145.8 2421.27,-145.8 2421.27,-145.8"/>
<polygon fill="black" stroke="black" points="2421.27,-149.3 2431.27,-145.8 2421.27,-142.3 2421.27,-149.3"/>
</g>
<!-- LoaderService -->
<g id="node33" class="node">
<title>LoaderService</title>
<ellipse fill="#fdb462" stroke="black" cx="91" cy="-66.8" rx="67.17" ry="18"/>
<text text-anchor="middle" x="91" y="-62.6" font-family="Times,serif" font-size="14.00">LoaderService</text>
</g>
<!-- LoaderService&#45;&gt;AppModule -->
<g id="edge32" class="edge">
<title>LoaderService&#45;&gt;AppModule</title>
<path fill="none" stroke="black" d="M91,-85.18C91,-109.08 91,-147.8 91,-147.8 91,-147.8 2421.15,-147.8 2421.15,-147.8"/>
<polygon fill="black" stroke="black" points="2421.15,-151.3 2431.15,-147.8 2421.15,-144.3 2421.15,-151.3"/>
</g>
</g>
</svg>
